<svg id="Layer_1" data-name="Layer 1" xmlns="http://www.w3.org/2000/svg" viewBox="0 0 429.3 429.3"><defs><style>.cls-1{fill:#b72925;}.cls-2{fill:#fff;}</style></defs><title>enzymewithsubstrate</title><path class="cls-1" d="M515.57,196.21A73.16,73.16,0,0,1,413.68,94.33a209.21,209.21,0,0,0-175,0A73.15,73.15,0,0,1,136.78,196.21c-35.61,77.1-21.65,171.45,41.91,235,81.45,81.46,213.52,81.46,295,0C537.22,367.66,551.18,273.31,515.57,196.21Z" transform="translate(-105.46 -63)"/><path class="cls-2" d="M230.47,188a73.63,73.63,0,1,0-93.69,8.2A73.2,73.2,0,0,0,230.47,188Z" transform="translate(-105.46 -63)"/></svg>